<svg width="34" height="23" viewBox="0 0 34 23" fill="none" xmlns="http://www.w3.org/2000/svg">
<path stroke="none" d="M30.7766 3.84273C29.758 2.82524 28.5463 2.01852 27.2117 1.46927C25.8771 0.920019 24.4461 0.63914 23.0015 0.64289H22.9933C22.9797 0.64289 22.9665 0.64289 22.953 0.64289L22.9327 0.64466C22.9202 0.64466 22.9081 0.648201 22.897 0.650326C22.886 0.65245 22.8817 0.65245 22.8738 0.65422C22.866 0.655991 22.8535 0.659177 22.8432 0.66201L22.815 0.6698C22.8068 0.672278 22.799 0.675465 22.7911 0.678652C22.7833 0.681839 22.7687 0.686796 22.758 0.691399C22.7473 0.696002 22.7448 0.697772 22.7384 0.700959C22.732 0.704146 22.7148 0.711936 22.7027 0.718309L22.6967 0.721496L16.993 3.99215L11.3036 0.731764C11.2113 0.678936 11.1067 0.651097 11.0002 0.651034C8.08326 0.650564 5.28557 1.80108 3.22263 3.84949C1.15969 5.89789 0.000472865 8.67639 1.44636e-07 11.5737C-0.000472576 14.4711 1.15784 17.25 3.22011 19.299C5.28239 21.3481 8.0797 22.4995 10.9967 22.5H11.0013C11.0205 22.5 11.0394 22.5 11.0583 22.4972H11.0665C11.0847 22.495 11.1022 22.4922 11.1214 22.4887H11.1275C11.1428 22.4855 11.1582 22.4816 11.1731 22.477L11.1863 22.4731C11.202 22.4681 11.2177 22.4625 11.2334 22.4561L11.2466 22.4501C11.258 22.4451 11.269 22.4398 11.2804 22.4338L11.2965 22.4253L11.304 22.4214L17.0076 19.1504L22.697 22.4132C22.7891 22.4661 22.8936 22.4939 23 22.494C25.1757 22.4943 27.3026 21.8536 29.1116 20.6531C30.9206 19.4526 32.3306 17.7461 33.163 15.7495C33.9955 13.7529 34.2131 11.556 33.7883 9.43653C33.3635 7.31709 32.3154 5.37041 30.7766 3.84273ZM22.3951 2.28477V7.09249L18.2047 4.68933L22.3951 2.28477ZM1.21452 11.5755C1.21437 9.02519 2.22334 6.57697 4.02387 4.75881C5.8244 2.94066 8.27221 1.89823 10.8395 1.85633L21.7798 8.1303L10.6965 14.4868C10.6044 14.5396 10.5279 14.6156 10.4747 14.7071C10.4215 14.7986 10.3935 14.9023 10.3935 15.008V21.277C7.90791 21.1235 5.57473 20.0346 3.86928 18.232C2.16384 16.4294 1.21445 14.0488 1.21452 11.5752V11.5755ZM11.6052 20.8571V16.0504L15.7952 18.4532L11.6052 20.8571ZM29.9193 18.4412C28.1273 20.2311 25.7009 21.2527 23.1597 21.2873L12.2112 15.008L23.1825 8.7163C23.3408 8.62318 23.4528 8.56122 23.5255 8.43587C23.5728 8.35458 23.6002 8.26336 23.6053 8.1696V8.16535C23.6053 8.15615 23.6053 8.14659 23.6053 8.13703C23.6053 8.13313 23.6053 8.12924 23.6053 8.12534V1.86589C25.4854 1.98203 27.2918 2.63469 28.8077 3.74551C30.3235 4.85633 31.4844 6.3781 32.1509 8.12813C32.8174 9.87817 32.9612 11.7821 32.5651 13.6113C32.169 15.4406 31.2498 17.1174 29.9179 18.4404L29.9193 18.4412Z" fill="white"></path>
</svg>