<svg width="16" height="20" fill="none" xmlns="http://www.w3.org/2000/svg"><path d="M15.665 15.586a11.048 11.048 0 01-1.022 1.934c-.537.806-.976 1.364-1.315 1.674-.525.509-1.088.769-1.69.784-.434 0-.955-.13-1.563-.393-.609-.262-1.169-.391-1.681-.391-.537 0-1.113.13-1.729.391-.617.263-1.114.4-1.494.414-.578.026-1.154-.242-1.729-.805-.367-.337-.826-.915-1.376-1.733-.59-.874-1.075-1.888-1.455-3.044C.204 13.17 0 11.961 0 10.791c0-1.34.275-2.497.826-3.465a4.986 4.986 0 011.73-1.843 4.48 4.48 0 012.339-.695c.459 0 1.061.15 1.809.443.746.295 1.225.445 1.435.445.157 0 .689-.175 1.591-.524.853-.323 1.573-.457 2.163-.404 1.598.136 2.798.8 3.597 1.994-1.43.912-2.136 2.19-2.122 3.827.013 1.277.452 2.339 1.316 3.182.392.391.83.694 1.316.908-.105.323-.217.631-.335.927zM11.999.401c0 1-.347 1.934-1.038 2.798-.835 1.028-1.845 1.622-2.94 1.528a3.275 3.275 0 01-.022-.38c0-.96.397-1.987 1.102-2.827.352-.426.8-.78 1.342-1.061C10.986.18 11.498.027 11.98 0c.013.134.02.268.02.4z" fill="#000"></path></svg>