<svg fill="none" xmlns="http://www.w3.org/2000/svg" viewBox="0 0 37 31" class="squarespace-mark is-fill notranslate">
  <title>Squarespace Logo</title>
  <path fill-rule="evenodd" clip-rule="evenodd" d="m7.583 16.216 11.562-11.98a4.063 4.063 0 0 1 5.889 0l.9.933 1.802-1.867-.9-.934C25.57 1.058 23.885.335 22.089.335c-1.794 0-3.48.723-4.745 2.034L5.78 14.35l1.802 1.867Z" fill="#fff"></path>
  <path fill-rule="evenodd" clip-rule="evenodd" d="m23.017 8.192-1.802-1.867-11.562 11.98a4.067 4.067 0 0 1-5.888 0c-1.624-1.682-1.624-4.42 0-6.102L13.74 1.867 11.94 0 1.963 10.337c-2.617 2.711-2.617 7.124 0 9.835 1.265 1.311 2.95 2.034 4.745 2.034s3.481-.723 4.747-2.034l11.562-11.98ZM34.527 10.336a6.553 6.553 0 0 0-9.492 0l-11.562 11.98 1.8 1.868 11.563-11.98a4.067 4.067 0 0 1 5.889 0 4.364 4.364 0 0 1 1.217 3.05 4.365 4.365 0 0 1-1.217 3.051l-9.977 10.337 1.802 1.867 9.977-10.337c2.617-2.711 2.617-7.124 0-9.836Z" fill="#fff"></path>
  <path fill-rule="evenodd" clip-rule="evenodd" d="m28.906 14.293-11.562 11.98a4.067 4.067 0 0 1-5.889 0l-.9-.933-1.803 1.867.901.933c1.266 1.311 2.951 2.034 4.747 2.034 1.795 0 3.48-.723 4.746-2.035L30.708 16.16l-1.802-1.867Z" fill="#fff"></path>
</svg>