<svg width="178" height="45" viewBox="0 0 178 45" fill="none" xmlns="http://www.w3.org/2000/svg">
<path fill-rule="evenodd" clip-rule="evenodd" d="M13.2143 30.9411C10.7329 31.1147 8.24107 31.0687 5.76782 30.8036C10.6039 30.9681 15.4213 30.1252 19.9143 28.3286C20.0732 28.7107 20.3714 29.0625 20.5232 29.3893C19.1643 29.8321 17.8018 30.2696 16.2589 30.5286C16.5542 30.9326 16.9046 31.2932 17.3 31.6C19.1821 33.1839 21.8767 34.3 25.4339 34.1357C26.3655 34.084 27.2882 33.9259 28.1839 33.6643C28.4591 33.603 28.7285 33.5181 28.9893 33.4107C29.3071 33.2518 29.7035 32.8411 29.991 32.5857C32.1625 30.6107 33.9803 27.8036 33.9803 23.7839C33.9803 19.5643 32.1303 16.7393 29.8553 14.7464C27.6339 12.8 24.1571 11.1857 19.8553 12.0929C21.6128 13.8369 23.2538 15.6944 24.7678 17.6536C25.8962 16.7174 26.9538 15.6992 27.9321 14.6071C28.0375 14.4893 28.2518 14.1696 28.3643 14.1554C28.4767 14.1411 28.7678 14.3339 28.9 14.4107C29.3489 14.7437 29.7466 15.1408 30.0803 15.5893C28.8494 16.9878 27.4799 18.258 25.9928 19.3804C26.7982 20.5929 27.5392 21.8804 28.291 23.1304C29.5985 22.0687 30.8201 20.9056 31.9446 19.6518C32.0464 19.5411 32.3589 19.15 32.4571 19.1589C32.5553 19.1679 32.7035 19.5393 32.7518 19.6518C32.922 20.0409 33.0421 20.4502 33.1089 20.8696C33.1664 21.1031 33.1863 21.3442 33.1678 21.5839C33.1375 21.7071 32.8589 21.9268 32.716 22.0554C31.616 23.0429 30.3946 24.0196 29.2375 24.9125C29.5 25.7286 29.9089 26.4679 30.2803 27.3482C30.5214 27.9232 30.7268 28.6339 30.95 29.2946C31.0458 29.5018 31.1177 29.7193 31.1643 29.9429C31.1768 30.2589 30.9107 30.6411 30.7535 30.8661C30.5838 31.1287 30.3714 31.3611 30.125 31.5536C28.0803 23.6357 24.45 17.3071 19.7303 12.0643C19.1089 12.3089 18.3268 12.3554 17.725 12.6339C17.5238 12.7537 17.3389 12.899 17.175 13.0661C16.8035 13.3857 16.5268 13.6375 16.1535 14.0089C16.0232 14.1411 15.7214 14.4036 15.7018 14.5214C15.6714 14.7 15.9196 15.3179 15.9768 15.5232C16.5828 17.744 17.3847 19.9067 18.3732 21.9857C18.6785 21.9857 18.9339 21.7911 19.1785 21.6536C20.8518 20.7018 22.3928 19.575 23.9143 18.4393C24.2714 18.9964 24.6 19.5875 24.9357 20.1679C23.2143 21.4786 21.2018 22.4893 19.0821 23.4089C19.2223 23.8018 19.4068 24.1775 19.6321 24.5286C20.2001 25.5889 20.823 26.6188 21.4982 27.6143C23.5178 26.7411 25.2982 25.5196 26.9393 24.3321C27.216 24.8089 27.3696 25.4036 27.5893 25.9393C26.05 27.1161 24.1571 27.9429 22.3035 28.8054C23.3168 30.2591 24.4258 31.6437 25.6232 32.95C25.7941 33.1215 25.9523 33.3054 26.0964 33.5C25.5572 33.5898 25.0092 33.6138 24.4643 33.5714C24.2847 33.5809 24.1048 33.5677 23.9285 33.5321C23.7749 33.3953 23.6425 33.2365 23.5357 33.0607C19.9143 27.9589 16.9839 21.9446 15.6178 14.6679C15.4794 14.7658 15.3586 14.8865 15.2607 15.025C13.6535 17.0393 12.5357 19.8143 12.7857 23.5964C12.0982 23.8179 11.3571 23.9964 10.6821 24.2232C10.4994 22.3047 10.8317 20.3723 11.6446 18.625C12.3045 17.1587 13.2553 15.8416 14.4393 14.7536C15.591 13.6821 17.0321 12.9196 18.5071 12.1393C20.1016 11.2453 21.8873 10.7468 23.7143 10.6857C26.0052 10.564 28.283 11.1026 30.2768 12.2375C31.9602 13.186 33.3635 14.5621 34.3446 16.2268C34.5946 16.6643 34.8803 17.0571 35.091 17.5036C35.8044 19.0485 36.1667 20.7323 36.1518 22.4339C36.1518 24.9518 35.491 27.1125 34.4232 28.7607C33.0991 30.798 31.2258 32.4194 29.0196 33.4375C28.5803 33.6393 28.175 33.9464 27.7428 34.1643C26 35.0393 23.616 35.5732 20.9571 35.2839C17.3464 34.8893 15.1357 33.1036 13.2143 30.9411Z" fill="#999999"></path>
<path fill-rule="evenodd" clip-rule="evenodd" d="M17.6785 23.8679C16.2248 24.3761 14.7317 24.7637 13.2143 25.0268C13.1089 25.4429 13.2964 25.8625 13.4303 26.225C13.817 27.2866 14.3456 28.2909 15.0018 29.2107C14.1946 29.4518 13.2964 29.6018 12.4268 29.7821C11.9798 29.1776 11.6287 28.5079 11.3857 27.7964C11.0902 27.028 10.8731 26.2317 10.7375 25.4196C9.55355 25.4929 8.54105 25.5571 7.29819 25.5571C6.95176 25.5571 6.34462 25.5071 6.09998 25.5393C7.15712 25.4107 8.17319 25.3304 9.1839 25.1464C10.1553 24.9679 11.1089 24.7893 12.041 24.5375C13.7945 24.0464 15.5088 23.4251 17.1696 22.6786C17.3339 23.0768 17.5339 23.4482 17.6785 23.8679Z" fill="#999999"></path>
<path fill-rule="evenodd" clip-rule="evenodd" d="M20.5233 21.5821C21.0108 21.175 21.7429 20.7696 22.0143 20.7696C22.2858 20.7696 22.7197 20.7964 23.0179 21.0679C23.0179 21.0679 24.3465 22.2732 24.5215 22.3696C24.6965 22.4661 25.1858 22.5482 25.3483 22.2482C25.5108 21.9482 27.6108 17.7839 28.709 15.7286C29.8072 13.6732 31.8804 10.0768 32.1376 9.65714C32.6158 8.90048 33.2487 8.25357 33.9947 7.75892C34.9476 7.17114 35.9398 6.64966 36.9643 6.19821C37.4108 6.00892 37.6697 5.98214 37.8447 6.10357C38.0197 6.22499 37.7358 6.54999 37.6661 6.63928C37.5965 6.72857 35.6875 9.49642 34.7929 11.0304C33.8983 12.5643 30.7679 17.9286 29.0054 21.6696C27.2429 25.4107 27.2197 25.5196 27.1215 25.6268C26.6409 26.0023 26.1124 26.3122 25.5501 26.5482C24.9393 26.7786 24.2893 27.1304 23.7876 27.1714C23.2858 27.2125 23.0143 26.9929 22.5679 26.6839C22.1215 26.375 19.8679 24.7607 19.45 23.6607C19.1518 22.875 19.3554 22.725 19.5322 22.4946C19.8456 22.1725 20.1764 21.8679 20.5233 21.5821Z" fill="white"></path>
<path fill-rule="evenodd" clip-rule="evenodd" d="M5.66076 13.0357C6.05897 13.225 6.52504 13.3929 6.8804 13.5946C6.71969 13.8625 6.47862 13.9232 6.28397 14.0589C5.96742 14.2692 5.70298 14.5489 5.51076 14.8768C5.3871 15.0864 5.3086 15.3195 5.28031 15.5612C5.25202 15.8029 5.27456 16.0479 5.34647 16.2804C5.60362 17.0482 6.77504 17.675 7.62326 17.4875C8.75004 17.2375 9.05183 15.825 8.87326 14.9C8.85004 14.7804 8.7429 14.6429 8.83397 14.4732C9.20719 14.5322 9.65719 14.8214 10.0608 14.9696C10.0682 15.458 10.013 15.9453 9.89647 16.4196C9.31076 18.5375 7.81433 19.4393 6.24647 18.9911C4.46433 18.4857 3.57147 16.9804 4.22326 15.1786C4.50134 14.3482 4.99789 13.608 5.66076 13.0357Z" fill="white"></path>
<path fill-rule="evenodd" clip-rule="evenodd" d="M2.82141 24.7625V21.2268H3.80534V22.225H7.35534C7.39641 21.9339 7.35534 21.5536 7.3732 21.2268H8.3357V24.7821H7.3732V23.8054C6.22855 23.7571 5.00177 23.8054 3.8232 23.7839C3.78034 24.075 3.8232 24.4554 3.80534 24.7821C3.47725 24.7931 3.14881 24.7865 2.82141 24.7625Z" fill="white"></path>
<path fill-rule="evenodd" clip-rule="evenodd" d="M8.70898 8.83035L10.0572 7.65535C11.8251 8.53928 13.5911 9.45535 15.3608 10.3339C15.0126 10.6911 14.5447 11.0482 14.1483 11.4053C13.8018 11.2161 13.4518 11.0482 13.1036 10.8393L11.4286 12.3C11.5304 12.675 11.6929 13.05 11.8304 13.4268L10.6358 14.4643C9.98398 12.5857 9.3322 10.7143 8.70898 8.83035ZM11.0304 11.3125L12.1429 10.3428C11.546 9.98711 10.9315 9.66169 10.3018 9.36785C10.5661 10.0161 10.7911 10.6643 11.0358 11.3125H11.0304Z" fill="white"></path>
<path fill-rule="evenodd" clip-rule="evenodd" d="M14.7035 4.55536L16.4392 4.0375C17.4839 4.77679 18.4517 5.64465 19.4857 6.40179L18.5892 3.39286L19.9642 2.98393L21.5392 8.26786L20.1249 8.68929C18.9071 7.7875 17.7589 6.76786 16.5535 5.83215L17.6249 9.43215L16.2285 9.84822L14.6803 4.62143C14.676 4.60943 14.6759 4.5963 14.6801 4.58426C14.6844 4.57222 14.6926 4.56201 14.7035 4.55536Z" fill="white"></path>
<path fill-rule="evenodd" clip-rule="evenodd" d="M24.1358 2.62857L25.9215 2.90536C26.5465 4.02321 27.0483 5.22678 27.6608 6.34821L28.1393 3.24821L29.5572 3.46786L28.7161 8.91786L27.9768 8.80357C27.7572 8.76964 27.4411 8.78393 27.2626 8.69286C27.1715 8.64821 27.0608 8.35179 26.9822 8.19286C26.4126 7.00893 25.8215 5.68036 25.2483 4.58036L24.6751 8.29464L23.2572 8.075L24.0858 2.67857C24.0862 2.66545 24.0916 2.65299 24.1009 2.64371C24.1102 2.63443 24.1227 2.62902 24.1358 2.62857Z" fill="white"></path>
<path d="M9.64286 36.775L9.10714 36.1482L9.51429 35.5196L8.76964 34.6429L8.08214 34.9446L7.5625 34.3321L11.0089 32.9036L11.6071 33.6036L9.64286 36.775ZM9.88929 34.95L10.6125 33.8357L9.39643 34.3714L9.88929 34.95Z" fill="white"></path>
<path d="M11.0714 38.1125C10.9299 37.9878 10.8093 37.8414 10.7142 37.6786C10.6217 37.5304 10.5649 37.3629 10.5482 37.189C10.5314 37.0152 10.5553 36.8398 10.6178 36.6768C10.7813 36.2748 11.0732 35.9382 11.4482 35.7196C11.6099 35.6323 11.7895 35.5828 11.9732 35.575C12.1425 35.5713 12.3106 35.6042 12.466 35.6714C12.6265 35.7396 12.7753 35.8323 12.9071 35.9464C13.0208 36.0423 13.1201 36.1542 13.2017 36.2786C13.2736 36.3911 13.3334 36.5108 13.3803 36.6357L12.9035 37.1911L12.8232 37.1232C12.8232 37.0821 12.8232 37.0339 12.8089 36.9786C12.801 36.9179 12.7873 36.8581 12.7678 36.8C12.7463 36.7376 12.7182 36.6778 12.6839 36.6214C12.6415 36.5538 12.5885 36.4934 12.5267 36.4429C12.4624 36.3816 12.3838 36.3372 12.2981 36.3138C12.2124 36.2905 12.1222 36.2888 12.0357 36.3089C11.8335 36.3664 11.6551 36.4872 11.5267 36.6536C11.3796 36.8029 11.2888 36.9985 11.2696 37.2071C11.2691 37.2951 11.289 37.382 11.3277 37.461C11.3665 37.54 11.423 37.609 11.4928 37.6625C11.5571 37.7195 11.63 37.7659 11.7089 37.8C11.7721 37.8274 11.8388 37.846 11.9071 37.8554C11.96 37.8599 12.0131 37.8599 12.066 37.8554L12.2089 37.8429L12.2892 37.9125L11.8124 38.4679C11.6822 38.4397 11.5553 38.3978 11.4339 38.3429C11.3027 38.2837 11.1807 38.2061 11.0714 38.1125Z" fill="white"></path>
<path d="M13.3715 39.7554C13.2104 39.6564 13.0663 39.5322 12.9447 39.3875C12.8317 39.2544 12.7511 39.0969 12.7093 38.9275C12.6674 38.758 12.6655 38.5811 12.7036 38.4107C12.8065 37.9876 13.0471 37.6108 13.3875 37.3393C13.5348 37.2292 13.7052 37.1541 13.8857 37.1196C14.0527 37.0913 14.2239 37.0993 14.3875 37.1429C14.5557 37.1868 14.7159 37.2567 14.8625 37.35C14.9888 37.4283 15.1031 37.5246 15.2018 37.6357C15.2914 37.7378 15.3698 37.8491 15.4357 37.9679L15.0447 38.5875L14.9554 38.5304C14.9465 38.4911 14.934 38.4429 14.9197 38.3893C14.9032 38.3276 14.8804 38.2678 14.8518 38.2107C14.8219 38.1471 14.7847 38.0872 14.7411 38.0321C14.6904 37.971 14.6301 37.9186 14.5625 37.8768C14.4899 37.8256 14.4057 37.7932 14.3175 37.7826C14.2293 37.772 14.1398 37.7835 14.0572 37.8161C13.866 37.9029 13.7076 38.0487 13.6054 38.2321C13.4802 38.4003 13.4171 38.6066 13.4268 38.8161C13.4389 38.9035 13.4712 38.9869 13.5211 39.0598C13.571 39.1326 13.6372 39.1928 13.7143 39.2357C13.7863 39.2825 13.8653 39.3174 13.9482 39.3393C14.0151 39.3576 14.0842 39.3666 14.1536 39.3661C14.207 39.3647 14.2602 39.3587 14.3125 39.3482L14.4518 39.3143L14.5411 39.3714L14.1518 40C14.0188 39.9914 13.8871 39.9687 13.759 39.9321C13.6221 39.8918 13.4916 39.8323 13.3715 39.7554Z" fill="white"></path>
<path d="M17.1035 39.4643L17.0428 39.4375C17.0041 39.4023 16.9608 39.3722 16.9143 39.3482C16.8524 39.3137 16.8 39.2869 16.7571 39.2679C16.6715 39.2286 16.5824 39.1976 16.491 39.175C16.4012 39.1551 16.3098 39.1437 16.2178 39.1411L15.4857 40.7804L14.8018 40.475L15.8928 38.0268L16.5768 38.3322L16.416 38.6893C16.5822 38.6195 16.7593 38.579 16.9393 38.5697C17.0556 38.5674 17.1711 38.5893 17.2785 38.6339L17.3589 38.6714L17.4357 38.7125L17.1035 39.4643Z" fill="white"></path>
<path d="M19.5857 40.8839L17.9357 40.4375C17.9115 40.5246 17.9056 40.6158 17.9185 40.7052C17.9314 40.7947 17.9628 40.8805 18.0107 40.9571C18.135 41.1175 18.3133 41.2273 18.5125 41.2661C18.6649 41.307 18.8243 41.3155 18.9803 41.2911C19.116 41.2738 19.2484 41.2365 19.3732 41.1804L19.4535 41.2018L19.275 41.8679C19.1083 41.898 18.9389 41.9112 18.7696 41.9071C18.6029 41.8998 18.4375 41.8735 18.2767 41.8286C18.0859 41.7906 17.9043 41.7154 17.7425 41.6073C17.5808 41.4991 17.4419 41.3601 17.3339 41.1982C17.2443 41.0318 17.19 40.8487 17.1743 40.6604C17.1586 40.472 17.1819 40.2825 17.2428 40.1036C17.3217 39.728 17.5415 39.397 17.8571 39.1786C18.011 39.0847 18.1835 39.0253 18.3626 39.0043C18.5416 38.9833 18.7231 39.0014 18.8946 39.0571C19.0497 39.0865 19.1964 39.1497 19.3242 39.2423C19.452 39.3349 19.5577 39.4546 19.6339 39.5929C19.7635 39.9094 19.7736 40.2622 19.6625 40.5857L19.5857 40.8839ZM19 40.2036C19.0458 40.0668 19.0458 39.9189 19 39.7821C18.9713 39.725 18.9297 39.6753 18.8786 39.6369C18.8275 39.5984 18.7682 39.5724 18.7053 39.5607C18.5803 39.5221 18.4452 39.5336 18.3285 39.5929C18.1994 39.674 18.1066 39.802 18.0696 39.95L19 40.2036Z" fill="white"></path>
<path d="M22.4321 42.3714L21.6857 42.3054L21.7107 42.0268C21.5942 42.1222 21.465 42.201 21.3268 42.2607C21.2018 42.309 21.0671 42.3268 20.9339 42.3125C20.7982 42.302 20.6675 42.2562 20.5547 42.1798C20.442 42.1034 20.3511 41.999 20.2911 41.8768C20.1339 41.5558 20.0767 41.195 20.1268 40.8411C20.1417 40.6368 20.1887 40.4361 20.2661 40.2464C20.3301 40.0899 20.4214 39.946 20.5357 39.8214C20.6349 39.7136 20.7569 39.6294 20.8929 39.575C21.0224 39.5224 21.1625 39.501 21.3018 39.5125C21.4183 39.5192 21.5327 39.547 21.6393 39.5946C21.7304 39.6394 21.8181 39.6908 21.9018 39.7482L22.0036 38.6125L22.75 38.6786L22.4321 42.3714ZM21.7518 41.5696L21.8679 40.2571C21.8176 40.227 21.7635 40.2036 21.7071 40.1875C21.6558 40.1725 21.6032 40.1623 21.55 40.1571C21.4646 40.145 21.3775 40.155 21.2971 40.1863C21.2167 40.2175 21.1458 40.269 21.0911 40.3357C20.9712 40.4977 20.9022 40.6916 20.8929 40.8929C20.8607 41.0887 20.8836 41.2896 20.9589 41.4732C20.9952 41.5361 21.0472 41.5886 21.1098 41.6255C21.1724 41.6625 21.2434 41.6826 21.3161 41.6839C21.3896 41.6893 21.4635 41.6808 21.5339 41.6589C21.6108 41.6418 21.6844 41.6122 21.7518 41.5714V41.5696Z" fill="white"></path>
<path d="M24.0803 39.2732L23.2893 39.2929L23.2732 38.6411L24.0643 38.6214L24.0803 39.2732ZM24.1357 42.3339L23.3875 42.3518L23.3214 39.6732L24.0696 39.6554L24.1357 42.3339Z" fill="white"></path>
<path d="M26.4928 42.1036C26.412 42.1364 26.3291 42.1639 26.2446 42.1857C26.1371 42.2119 26.0279 42.2304 25.9178 42.2411C25.687 42.2847 25.4483 42.2374 25.2517 42.1089C25.0958 41.9899 25.0005 41.7673 24.966 41.4411L24.8321 40.1911L24.5267 40.2232L24.4642 39.6429L24.7696 39.6107L24.6874 38.8482L25.4321 38.7679L25.5142 39.5304L26.2071 39.4554L26.2696 40.0339L25.5767 40.1089L25.6785 41.0554C25.688 41.1494 25.6976 41.2309 25.7071 41.3C25.7151 41.362 25.7331 41.4224 25.7607 41.4786C25.7846 41.531 25.8255 41.5738 25.8767 41.6C25.9454 41.6292 26.0211 41.6379 26.0946 41.625C26.1458 41.6171 26.1957 41.6021 26.2428 41.5804C26.2871 41.5637 26.3291 41.5415 26.3678 41.5143H26.4303L26.4928 42.1036Z" fill="white"></path>
<path d="M29.1642 40.3429L27.4999 40.7357C27.5202 40.8239 27.5586 40.907 27.6127 40.9795C27.6668 41.0521 27.7355 41.1126 27.8142 41.1571C28.0003 41.239 28.2097 41.2504 28.4035 41.1893C28.5571 41.1531 28.7013 41.0849 28.8267 40.9893C28.9379 40.909 29.0366 40.8127 29.1196 40.7036L29.1999 40.6839L29.3589 41.3554C29.2269 41.4612 29.0845 41.5533 28.9339 41.6304C28.7836 41.7031 28.6254 41.7582 28.4624 41.7946C28.2764 41.8523 28.0807 41.8727 27.8868 41.8546C27.6928 41.8366 27.5043 41.7804 27.3321 41.6893C27.1742 41.5855 27.0394 41.4503 26.9362 41.2921C26.8329 41.1338 26.7635 40.956 26.7321 40.7696C26.6243 40.4021 26.6613 40.0072 26.8357 39.6661C26.9265 39.5103 27.05 39.376 27.1976 39.2724C27.3453 39.1689 27.5136 39.0985 27.691 39.0661C27.8421 39.0186 28.0018 39.0052 28.1586 39.0268C28.3155 39.0484 28.4656 39.1045 28.5982 39.1911C28.8622 39.4078 29.0386 39.713 29.0946 40.05L29.1642 40.3429ZM28.3249 40.0232C28.2983 39.8815 28.2262 39.7524 28.1196 39.6554C28.0679 39.6202 28.009 39.5971 27.9471 39.5878C27.8853 39.5785 27.8222 39.5833 27.7624 39.6018C27.6341 39.627 27.5207 39.7013 27.4464 39.8089C27.3714 39.9419 27.3509 40.0987 27.3892 40.2464L28.3249 40.0232Z" fill="white"></path>
<path d="M32.3642 40.3571L31.6714 40.6429L31.5642 40.3839C31.5056 40.5225 31.4281 40.6523 31.3339 40.7696C31.2452 40.87 31.1337 40.9478 31.0089 40.9964C30.8834 41.0502 30.746 41.0702 30.6104 41.0545C30.4748 41.0389 30.3456 40.9881 30.2357 40.9071C29.9486 40.6953 29.7315 40.4024 29.6124 40.0661C29.5315 39.8746 29.4815 39.6715 29.4642 39.4643C29.449 39.2939 29.4641 39.1222 29.5089 38.9571C29.5476 38.8148 29.6178 38.683 29.7142 38.5714C29.8051 38.4651 29.9194 38.3813 30.0482 38.3268C30.1541 38.2789 30.2678 38.2505 30.3839 38.2429C30.4853 38.241 30.5868 38.2464 30.6874 38.2589L30.2517 37.2054L30.9446 36.9196L32.3642 40.3571ZM31.3892 39.9607L30.8928 38.7393C30.833 38.7352 30.7729 38.7394 30.7142 38.7518C30.6617 38.7624 30.6103 38.7779 30.5607 38.7982C30.4804 38.8252 30.4083 38.8721 30.3512 38.9346C30.294 38.9971 30.2537 39.073 30.2339 39.1554C30.2017 39.359 30.2322 39.5677 30.3214 39.7536C30.3839 39.9422 30.4977 40.1098 30.6499 40.2375C30.7119 40.2769 30.783 40.2994 30.8563 40.3028C30.9296 40.3063 31.0025 40.2905 31.0678 40.2571C31.1343 40.2272 31.1948 40.1854 31.2464 40.1339C31.3033 40.0825 31.3515 40.0222 31.3892 39.9554V39.9607Z" fill="white"></path>
<path d="M37.1428 37.1946L36.3678 37.7821L34.9107 37.2464L34.616 37.4696L35.4035 38.5071L34.7714 38.9857L32.6285 36.1554L33.7 35.3464C33.8243 35.2498 33.957 35.1644 34.0964 35.0911C34.2115 35.036 34.3367 35.005 34.4643 35C34.6043 34.9931 34.744 35.02 34.8714 35.0786C35.0192 35.1521 35.1462 35.2614 35.241 35.3964C35.3843 35.5697 35.4748 35.7804 35.5018 36.0036C35.5156 36.2108 35.4775 36.4183 35.391 36.6071L37.1428 37.1946ZM34.6625 35.9821C34.6158 35.9177 34.5546 35.865 34.4839 35.8286C34.4147 35.7965 34.3366 35.7889 34.2625 35.8071C34.1988 35.8216 34.1382 35.8477 34.0839 35.8839C34.0232 35.9232 33.9547 35.9714 33.8785 36.0286L33.6482 36.2071L34.2268 36.9696L34.4214 36.8214C34.5072 36.7577 34.5878 36.6872 34.6625 36.6107C34.719 36.5532 34.7581 36.4807 34.775 36.4018C34.79 36.3348 34.79 36.2652 34.775 36.1982C34.7503 36.1182 34.7096 36.0441 34.6553 35.9804L34.6625 35.9821Z" fill="white"></path>
<path d="M38.3071 34.2143L37.1393 35.4643C37.2049 35.5267 37.2827 35.5748 37.3678 35.6055C37.453 35.6363 37.5436 35.649 37.6339 35.6429C37.8343 35.6078 38.0152 35.5012 38.1428 35.3429C38.2506 35.2274 38.3327 35.0905 38.3839 34.9411C38.4321 34.8127 38.461 34.6779 38.4696 34.5411L38.5268 34.4804L39.0303 34.9518C38.979 35.113 38.9114 35.2685 38.8286 35.4161C38.7443 35.56 38.6436 35.6936 38.5286 35.8143C38.28 36.1181 37.921 36.3108 37.5303 36.35C37.3412 36.3515 37.1538 36.3138 36.9799 36.2395C36.8059 36.1651 36.6493 36.0556 36.5196 35.9179C36.2256 35.6716 36.0371 35.322 35.9928 34.9411C35.982 34.7611 36.0103 34.581 36.0756 34.413C36.141 34.2451 36.2419 34.0932 36.3714 33.9679C36.4709 33.8446 36.5966 33.745 36.7392 33.6761C36.8819 33.6073 37.038 33.5709 37.1964 33.5696C37.5376 33.6026 37.855 33.7588 38.0893 34.0089L38.3071 34.2143ZM37.4321 34.4143C37.3316 34.3108 37.1998 34.243 37.0571 34.2214C36.9931 34.22 36.9296 34.2335 36.8717 34.2608C36.8138 34.288 36.7629 34.3284 36.7232 34.3786C36.6302 34.4708 36.5771 34.5958 36.575 34.7268C36.5865 34.8785 36.6562 35.0199 36.7696 35.1214L37.4321 34.4143Z" fill="white"></path>
<path d="M40.7054 32.2214C40.8897 32.333 41.0534 32.4756 41.1893 32.6429C41.2919 32.7692 41.3602 32.9199 41.3875 33.0804C41.4095 33.2337 41.3961 33.3901 41.3483 33.5375C41.2921 33.7099 41.2128 33.8739 41.1125 34.025C41.0265 34.1595 40.931 34.2878 40.8268 34.4089C40.7368 34.5149 40.6402 34.6151 40.5375 34.7089L39.9733 34.3518L40.0233 34.275C40.1209 34.2096 40.2129 34.1362 40.2983 34.0554C40.3873 33.9763 40.4659 33.8863 40.5322 33.7875C40.5964 33.6935 40.6452 33.5898 40.6768 33.4804C40.6982 33.4038 40.6982 33.3229 40.6768 33.2464C40.6528 33.179 40.6137 33.1179 40.5625 33.0679C40.4948 32.9997 40.4193 32.9398 40.3375 32.8893L40.2947 32.8625C40.3143 32.9807 40.3143 33.1014 40.2947 33.2196C40.2747 33.3435 40.2284 33.4616 40.159 33.5661C40.0879 33.6912 39.9879 33.7975 39.8674 33.8761C39.7469 33.9547 39.6093 34.0033 39.4661 34.0179C39.1804 34.0452 38.8435 33.9339 38.4554 33.6839C38.2904 33.5825 38.1427 33.4553 38.0179 33.3071C37.9161 33.1825 37.8381 33.0403 37.7875 32.8875C37.743 32.7511 37.7302 32.6064 37.75 32.4643C37.768 32.3238 37.8168 32.189 37.8929 32.0696C37.9546 31.971 38.0318 31.883 38.1215 31.8089C38.2033 31.7425 38.2949 31.6889 38.3929 31.65L38.3072 31.5625L38.7 30.9518L40.7054 32.2214ZM39.8483 32.5607L38.8268 31.9036C38.7803 31.9332 38.7377 31.9686 38.7 32.0089C38.6609 32.0496 38.6256 32.0938 38.5947 32.1411C38.5444 32.2085 38.5113 32.2871 38.4982 32.3702C38.4852 32.4533 38.4925 32.5383 38.5197 32.6179C38.5963 32.7945 38.7286 32.9413 38.8965 33.0357C39.0463 33.1502 39.2293 33.2129 39.4179 33.2143C39.4867 33.2038 39.5522 33.1775 39.6092 33.1376C39.6662 33.0976 39.7132 33.045 39.7465 32.9839C39.787 32.9206 39.8154 32.8504 39.8304 32.7768C39.8463 32.7059 39.8523 32.6332 39.8483 32.5607Z" fill="white"></path>
<path d="M38.7499 29.5589L38.5267 30.3179L37.9017 30.1393L38.1249 29.3804L38.7499 29.5589ZM41.6821 30.4411L41.4714 31.1554L38.8999 30.4018L39.1107 29.6875L41.6821 30.4411Z" fill="white"></path>
<path d="M41.291 27.2625C41.4202 27.2726 41.545 27.3135 41.655 27.3819C41.765 27.4503 41.857 27.544 41.9232 27.6554C42.0773 27.9317 42.1334 28.2521 42.0821 28.5643C42.0636 28.7535 42.021 28.9395 41.9553 29.1179C41.9062 29.2543 41.8421 29.3848 41.7643 29.5071L41.0625 29.4321V29.3643C41.0964 29.3304 41.1339 29.2911 41.175 29.2464C41.2268 29.186 41.2729 29.1209 41.3125 29.0518C41.3603 28.9716 41.401 28.8874 41.4339 28.8C41.4717 28.7007 41.4963 28.5968 41.5071 28.4911C41.5255 28.3808 41.5181 28.2677 41.4857 28.1607C41.475 28.1274 41.4547 28.0979 41.4274 28.076C41.4001 28.0541 41.367 28.0407 41.3321 28.0375C41.3055 28.0322 41.278 28.0337 41.2521 28.0419C41.2262 28.05 41.2028 28.0644 41.1839 28.0839C41.1349 28.1527 41.098 28.2294 41.075 28.3107C41.0547 28.3643 41.0315 28.4375 41.0053 28.5304C40.9815 28.6155 40.9523 28.699 40.9178 28.7804C40.8525 28.9592 40.7318 29.1125 40.5732 29.2179C40.4172 29.308 40.2355 29.3432 40.0571 29.3179C39.9331 29.3059 39.8137 29.2649 39.7086 29.1982C39.6034 29.1315 39.5154 29.041 39.4517 28.9339C39.2963 28.6639 39.2389 28.3485 39.2893 28.0411C39.3066 27.8727 39.345 27.7071 39.4035 27.5482C39.447 27.4234 39.5039 27.3036 39.5732 27.1911L40.2464 27.2625V27.3268C40.1448 27.4324 40.0599 27.5528 39.9946 27.6839C39.9266 27.8147 39.8836 27.957 39.8678 28.1036C39.8534 28.2071 39.862 28.3126 39.8928 28.4125C39.9004 28.448 39.9187 28.4804 39.9452 28.5053C39.9716 28.5302 40.0051 28.5464 40.041 28.5518C40.0674 28.5569 40.0946 28.5561 40.1205 28.5493C40.1465 28.5425 40.1706 28.5299 40.191 28.5125C40.2499 28.438 40.293 28.3524 40.3178 28.2607C40.3428 28.1875 40.3696 28.1071 40.3946 28.0214C40.4196 27.9357 40.45 27.8429 40.4857 27.7643C40.5466 27.5982 40.6601 27.4565 40.8089 27.3607C40.9545 27.2761 41.1239 27.2416 41.291 27.2625Z" fill="white"></path>
<path d="M42.0946 25.1089C42.1201 25.1926 42.1398 25.2779 42.1535 25.3643C42.1698 25.4737 42.1782 25.5841 42.1785 25.6946C42.2 25.9283 42.1302 26.1612 41.9839 26.3446C41.8506 26.4887 41.6202 26.5625 41.2928 26.5661L40.0428 26.5821V26.8893H39.4607V26.5821L38.6946 26.5911L38.6857 25.8411L39.4517 25.8321V25.1357H40.0339V25.8321L40.9857 25.8214H41.2321C41.2962 25.8201 41.3595 25.808 41.4196 25.7857C41.4739 25.7668 41.5204 25.7304 41.5517 25.6821C41.5874 25.6166 41.6035 25.5423 41.5982 25.4679C41.5951 25.4161 41.5849 25.365 41.5678 25.3161C41.5553 25.2706 41.5373 25.2268 41.5142 25.1857V25.1232L42.0946 25.1089Z" fill="white"></path>
<path d="M40.0303 22.9768V23.0429C40.02 23.094 40.0164 23.1462 40.0196 23.1982C40.0196 23.2685 40.0232 23.328 40.0303 23.3768C40.0399 23.4706 40.0585 23.5633 40.0857 23.6536C40.1145 23.7408 40.1516 23.8252 40.1964 23.9054L41.9821 23.7054L42.066 24.45L39.4035 24.7482L39.3196 24.0036L39.7107 23.9589C39.5657 23.8517 39.4407 23.7199 39.341 23.5696C39.2803 23.4705 39.2407 23.3599 39.225 23.2446C39.225 23.2179 39.225 23.1893 39.225 23.1554C39.225 23.1214 39.225 23.0929 39.225 23.0679L40.0303 22.9768Z" fill="white"></path>
<path d="M41.1392 20.7607L41.2982 20.875C41.3542 20.9145 41.4062 20.9594 41.4535 21.0089C41.5077 21.0695 41.5539 21.1367 41.591 21.2089C41.6307 21.2867 41.6612 21.3688 41.6821 21.4536C41.7098 21.5539 41.7158 21.6589 41.6998 21.7618C41.6838 21.8646 41.6461 21.9629 41.5892 22.05C41.5278 22.1418 41.4488 22.2206 41.3569 22.2819C41.265 22.3431 41.1619 22.3857 41.0535 22.4071C40.8924 22.4526 40.7218 22.4526 40.5607 22.4071C40.4217 22.3612 40.2981 22.2778 40.2035 22.1661C40.0873 22.0286 39.9944 21.8729 39.9285 21.7054C39.8488 21.5149 39.7749 21.3143 39.7071 21.1036H39.6928C39.6322 21.1127 39.5755 21.1391 39.5296 21.1796C39.4836 21.2202 39.4504 21.2731 39.4339 21.3321C39.4072 21.4896 39.4182 21.6512 39.466 21.8036C39.5046 21.932 39.565 22.0528 39.6446 22.1607C39.7279 22.2798 39.7874 22.3673 39.8232 22.4232L39.8392 22.4893L39.2124 22.6482C39.1696 22.578 39.1101 22.4589 39.0339 22.2911C38.9592 22.1284 38.8994 21.9592 38.8553 21.7857C38.7505 21.3738 38.7505 21.0577 38.8553 20.8375C38.916 20.72 39.0034 20.6183 39.1103 20.5405C39.2173 20.4627 39.3409 20.4109 39.4714 20.3893L41.2392 19.9411L41.4178 20.6554L41.1392 20.7607ZM40.7357 20.8643L40.1999 21.0018C40.2345 21.097 40.2738 21.2 40.3178 21.3107C40.3509 21.3961 40.3921 21.478 40.441 21.5554C40.4785 21.6158 40.5333 21.6637 40.5982 21.6929C40.667 21.7165 40.7418 21.7165 40.8107 21.6929C40.8551 21.6829 40.8982 21.6679 40.9392 21.6482C40.9745 21.6284 41.003 21.5985 41.0214 21.5625C41.0442 21.5232 41.0577 21.4792 41.0607 21.4339C41.0615 21.3638 41.0519 21.294 41.0321 21.2268C41.0116 21.1509 40.9751 21.0802 40.9249 21.0196C40.8717 20.9564 40.8076 20.9032 40.7357 20.8625V20.8643Z" fill="white"></path>
<path d="M38.4589 18.1982L38.4857 18.2589C38.4915 18.3109 38.5041 18.362 38.5232 18.4107C38.5464 18.4768 38.5678 18.5321 38.5875 18.575C38.6253 18.6613 38.6714 18.7439 38.725 18.8214C38.7779 18.8954 38.8377 18.9641 38.9035 19.0268L40.5375 18.2821L40.8482 18.9643L38.4089 20.075L38.0982 19.3929L38.4553 19.2304C38.2845 19.1734 38.125 19.0869 37.9839 18.975C37.895 18.9002 37.8226 18.8078 37.7714 18.7036C37.7607 18.6804 37.7482 18.6518 37.7357 18.6214C37.7232 18.5911 37.7143 18.5625 37.7053 18.5393L38.4589 18.1982Z" fill="white"></path>
<text fill="#999999" xml:space="preserve" style="white-space: pre" font-family="Clarkson" font-size="12" letter-spacing="0em"><tspan x="61" y="20.302">We are an ICANN </tspan><tspan x="61" y="34.302">accredited registrar.</tspan></text>
</svg>